<?xml version="1.0" encoding="UTF-8"?>
<svg version="1.1" xmlns="http://www.w3.org/2000/svg" width="61" height="28">
<path d="M0 0 C20.13 0 40.26 0 61 0 C61 9.24 61 18.48 61 28 C40.87 28 20.74 28 0 28 C0 18.76 0 9.52 0 0 Z " fill="#2E083F" transform="translate(0,0)"/>
<path d="M0 0 C9 -0.48 9 -0.48 13.125 1.5 C15.27221949 4.36295933 15.73637851 6.44781246 15.46875 10.02734375 C14.59649827 13.69806979 13.13581215 14.99308022 10 17 C6.55189604 17.40534963 3.49364097 17.2329094 0 17 C0 11.39 0 5.78 0 0 Z " fill="#8C50B4" transform="translate(21,6)"/>
<path d="M0 0 C9.625 -0.25 9.625 -0.25 13 2 C13.47446226 5.60591321 12.83832664 7.89782379 11 11 C12.98 13.97 12.98 13.97 15 17 C12.1875 17.3125 12.1875 17.3125 9 17 C7.125 14.5 7.125 14.5 6 12 C5.67 13.65 5.34 15.3 5 17 C3.35 17 1.7 17 0 17 C0 11.39 0 5.78 0 0 Z " fill="#B6C809" transform="translate(5,6)"/>
<path d="M0 0 C1.32 0 2.64 0 4 0 C4.66 0.99 5.32 1.98 6 3 C6.66 2.01 7.32 1.02 8 0 C9.32 0.33 10.64 0.66 12 1 C11.195625 1.8353125 11.195625 1.8353125 10.375 2.6875 C9.92125 3.450625 9.4675 4.21375 9 5 C9.66096786 7.65245602 9.66096786 7.65245602 11 10 C11.33 10.66 11.66 11.32 12 12 C9.625 12.1875 9.625 12.1875 7 12 C6.34 11.01 5.68 10.02 5 9 C4.67 9.99 4.34 10.98 4 12 C2.35 12 0.7 12 -1 12 C-0.46375 11.319375 0.0725 10.63875 0.625 9.9375 C2.38809986 6.94027673 2.38809986 6.94027673 1.1875 3.1875 C0.795625 2.135625 0.40375 1.08375 0 0 Z " fill="#8C50B3" transform="translate(45,11)"/>
<path d="M0 0 C5.875 0.875 5.875 0.875 7 2 C7.46153846 7.30769231 7.46153846 7.30769231 5.75 9.875 C4 11 4 11 0 11 C0 7.37 0 3.74 0 0 Z " fill="#320B45" transform="translate(25,9)"/>
<path d="M0 0 C1.32 0 2.64 0 4 0 C4 3.96 4 7.92 4 12 C2.68 12 1.36 12 0 12 C0 8.04 0 4.08 0 0 Z " fill="#8A4EB1" transform="translate(38,11)"/>
<path d="M0 0 C0.99 0 1.98 0 3 0 C4.8125 2.1875 4.8125 2.1875 6 5 C5.4375 7.6875 5.4375 7.6875 4 10 C2.02 10.99 2.02 10.99 0 12 C0 8.04 0 4.08 0 0 Z " fill="#380F4C" transform="translate(42,11)"/>
</svg>
